<?xml version="1.0" standalone="no"?>
<!DOCTYPE svg PUBLIC "-//W3C//DTD SVG 20010904//EN"
 "http://www.w3.org/TR/2001/REC-SVG-20010904/DTD/svg10.dtd">
<svg version="1.0" xmlns="http://www.w3.org/2000/svg"
 width="512.000000pt" height="512.000000pt" viewBox="0 0 512.000000 512.000000"
 preserveAspectRatio="xMidYMid meet">
<metadata>
Created by potrace 1.14, written by Peter Selinger 2001-2017
</metadata>
<g transform="translate(0.000000,512.000000) scale(0.100000,-0.100000)"
fill="#000000" stroke="none">
<path d="M415 5110 c-183 -38 -330 -170 -391 -350 -18 -53 -19 -134 -19 -2205
l0 -2150 23 -59 c64 -169 213 -300 380 -335 38 -8 659 -11 2155 -11 2299 0
2151 -4 2277 57 121 58 240 214 269 351 15 74 16 4213 0 4298 -31 168 -163
321 -335 386 l-59 23 -2130 1 c-1172 1 -2148 -2 -2170 -6z m1785 -1285 l0
-155 -560 0 -560 0 0 -485 0 -485 480 0 480 0 0 -155 0 -155 -480 0 -480 0 0
-625 0 -625 -180 0 -180 0 0 1420 0 1420 740 0 740 0 0 -155z m1612 123 c286
-78 487 -286 558 -578 44 -184 36 -428 -21 -605 -39 -122 -89 -205 -180 -296
-62 -63 -93 -86 -170 -123 -170 -82 -210 -88 -631 -93 l-368 -5 0 -554 0 -554
-180 0 -180 0 0 1421 0 1420 538 -3 537 -4 97 -26z"/>
<path d="M3000 3115 l0 -555 323 0 c258 0 335 3 382 15 227 60 347 264 332
570 -10 228 -99 394 -252 473 -89 46 -140 52 -472 52 l-313 0 0 -555z"/>
</g>
</svg>
